<?xml version="1.0" encoding="utf-8"?>
<!-- Generator: Adobe Illustrator 19.2.1, SVG Export Plug-In . SVG Version: 6.00 Build 0)  -->
<svg version="1.1" id="layer" xmlns="http://www.w3.org/2000/svg" xmlns:xlink="http://www.w3.org/1999/xlink" x="0px" y="0px"
	 viewBox="0 0 652 652" style="enable-background:new 0 0 652 652;" xml:space="preserve">
<style type="text/css">
	.st0{fill:#31100A;}
</style>
<path class="st0" d="M170.5,197.1c1.3-2,4.3-6.9,13.5-5.9c0,8.6,0.3,21.4-0.3,28.3c-0.3,4.3-3.9,3.9-3,8.2c1.6,1,13.2,1.3,17.8,0.7
	c0,0,4.3-1.6,0-5.6c-1.3-2-0.7-30.6-0.7-30.9c2.3,0,6.9-0.3,6.9,0c-0.7,6.6,2.6,6.6,4.9,2.3c0.3-1.6,7.6-9.9,5.9-12.8
	c-0.3-0.3-3.3,0-3.3,0c-3.3,1.3-3.6,2-4.6,2.3c-5.9,0.3-13.8,0.3-29.6,0c-1-2.3-2.6-1.3-3.3-1.3
	C161.3,198.8,167.2,197.5,170.5,197.1z M214.2,197.1c0.3,3.3-0.3,23.4-0.3,24.7c-4.6,3-2.3,5.9-2.3,5.9c4.6,0,14.8,0.7,15.1,0
	c0.3-3.3-0.7-2.3-1.6-4.9c-1.6-4.3-1.3-11.8-1-13.2c5.9-11.5,13.5,24.7,0.7,31.6c-1.3,0.7-3.9,3.9,2.3,2.6
	c24.3-13.5,15.8-52-3.3-42.1c0-21,1.3-18.7-11.8-9.5C209.9,195.8,213.9,195.5,214.2,197.1z M148.1,336.6c-3.9,1.3-9.9,6.9-21.7,7.9
	c-24,2.3-38.2-4.6-52.6-20.1C61.3,311.3,58.3,289.6,58,281c-0.3-48.7,21.4-76.3,46-76.3c33.5-1,50.3,31.6,56.2,40.8
	c7.9,1,11.5-3,11.5-3c-3.3-21.7-18.7-52.3-22.7-55.6c-0.7-0.3-3-0.3-3.6,0c-2.6,1.6-10.9,9.2-10.2,9.2c-30.3-5.6-69.1-10.9-96,36.2
	c-7.9,13.8-11.5,24.3-12.2,41.4c-1.6,37.5,19.4,81.2,69.7,85.8c14.5,1.3,29.3,1.3,41.1-4.3c18.7-8.9,19.7-14.5,19.7-14.8
	C148.8,336.3,148.8,336.6,148.1,336.6z M259.6,227.7c9.9-1.6,12.2-5.3,12.2-5.3c2.3-3.3-0.3-4.3-2-3c-10.9,7.6-15.1-1.6-15.5-2.6
	c1.3-0.3,7.2-2.3,17.1-6.6c-0.3-1-2-9.9-10.5-10.9C237.9,196.8,235.9,229.1,259.6,227.7z M255.3,204.4c2.6-0.3,4.6,1.3,5.3,5.3
	c-2.6,0.7-4.6,2-7.6,1.6C251.7,210.3,252.7,204.7,255.3,204.4z M506.3,305.7c13.8,0.3,28,0.3,28.3-0.3c2.3-4.9,2-7.9-3.3-8.6
	c-2-0.3-1-3.3-2-4.6c-0.3-0.3-0.7-4.6-0.7-9.2c0,1,2.3-4.3,5.6-4.9c4.6,0.7,13.2,24.7,16.8,27c4.9,0.7,16.8,0.3,19.7-0.3
	c3.6-9.5-3.9-3.6-11.5-19.4c-11.5-24.3-12.2-22.7-0.3-28c6.6-3,5.3-6.6,1.6-7.2c-32.2-4.6-25.3,4.6-25.7,3.9c1,2.6,10.2,2-3.6,13.8
	c0,0-1.6,0.3-1.6-0.3c-0.3-8.6-0.3-52-0.3-59.9c-1.3-2.3-6.6-1-25.3,11.5c0.3,0.7,0,3.6,0.7,3.9c1,0.7,6.6,2,6.9,5.3
	c0,43.4-0.3,61.2,0,64.1c-3.6,4.9-7.2,4.6-7.6,6.9C503.6,303.1,505.6,305.7,506.3,305.7z M254.3,260.6c0,4.6,0,6.9,0.7,8.6
	c3.6,9.5,13.8,10.9,21,13.2c8.9,3.3,15.5,4.3,15.1,8.6c-0.3,1.3-3.3,6.6-16.8,3.9c-5.6-1-8.2-2.3-17.8-9.9c-0.3,0-4.3-0.3-3.9,0
	c1.6,6.9,3.3,10.5,10.5,22.7c0.3,0,3.9-0.3,3.9-0.3c5.6-7.6,6.2-3.3,17.8-2c27.6,3,41.1-29.9,0.7-38.2c-8.6-1.3-19.4-7.6-10.9-10.9
	c9.5-3.6,23.7,6.6,22.4,5.9c12.5,6.6,8.6-0.3,3.6-8.6c-8.6-14.1-8.2-3.9-13.8-4.3c-4.3-0.3-4.3-1.3-16.4-1.6
	C265.2,248.1,254.3,252.1,254.3,260.6z M405.3,306c20.7-1,24.3-11.5,26-15.1c0.7-1.6-2.3-5.6-4.6-3c-22.7,24-35.8-1-35.5-10.9
	c0-9.2,3.3-22.4,13.8-21.4c0,0,7.2-3,12.5,15.1c5.6,6.6,8.2-0.7,11.8-11.5c1.6-4.9-8.6-10.2-24.3-10.9
	c-16.4-0.7-34.2,13.5-33.5,30.3C372.7,304,391.8,305.7,405.3,306z M384.3,403.4c-22.7,24-35.8-1-35.5-10.9c0-9.2,3.3-22.4,13.8-21.4
	c0,0,7.2-3,12.5,15.1c5.3,6.6,8.2-0.7,11.8-11.5c1.6-4.9-8.6-10.2-24.3-10.9c-16.4-0.7-34.2,13.5-33.5,30.3
	c1.3,25.3,20.4,27,33.9,27.3c20.7-1,24.3-11.5,26-15.1C389.9,404.7,386.9,400.7,384.3,403.4z M225.1,306c15.8-1,26.3-10.2,27.6-13.2
	c1.3-2.3-1-5.3-3.9-3.6c-16.8,10.5-26.3,9.9-33.9-4.9c3.3-2.3,31.2-11.2,34.2-13.5c2-1.6-4.3-11.8-8.6-15.8
	c-4.9-4.3-10.2-6.9-21-6.2C179.7,252.7,184.9,307.7,225.1,306z M217.8,257c6.2-1,11.8,6.2,11.8,12.2c-1,1.3-15.8,7.6-17.8,3.6
	C209.6,269.5,209.6,259,217.8,257z M344.1,306c15.8-1,26-10.2,27.6-13.2c1.3-2.3-1-5.3-3.9-3.6c-16.8,10.5-26.3,9.9-33.9-4.9
	c3.3-2.3,31.2-11.2,34.2-13.5c2-1.6-4.3-11.8-8.6-15.8c-4.9-4.3-10.2-6.9-21-6.2C298.7,252.7,304,307.7,344.1,306z M336.9,257
	c6.2-1,11.8,6.2,11.5,12.2c-1,1.3-15.8,7.6-17.8,3.6C328.7,269.5,328.7,259,336.9,257z M597.1,306c15.8-1,26-10.2,27.6-13.2
	c1.3-2.3-1-5.3-3.9-3.6c-16.8,10.5-26.3,9.9-33.9-4.9c3.3-2.3,31.2-11.2,34.2-13.5c2-1.6-4.3-11.8-8.6-15.8
	c-4.9-4.3-10.2-6.9-21-6.2C551.7,252.7,556.6,307.7,597.1,306z M589.8,257c6.2-1,11.8,6.2,11.8,12.2c-1,1.3-15.8,7.6-17.8,3.6
	C581.6,269.5,581.6,259,589.8,257z M182,254.7c-4.9-4.3-10.2-6.9-21-6.2c-40.1,4.3-35.2,59.2,5.3,57.2c15.8-1,26.3-10.2,27.6-13.2
	c1.3-2.3-1-5.3-3.9-3.6c-16.8,10.5-26.3,9.9-33.9-4.9c3.3-2.3,31.2-11.2,34.2-13.5C192.5,268.8,186.3,258.7,182,254.7z M153,273.1
	c-2-3.6-2-14.1,6.2-15.8c6.2-1,11.8,6.2,11.8,12.2C169.8,270.8,155,276.7,153,273.1z M433.3,289.9c0,8.6,2.6,15.5,23,16.4
	c19.4-2,17.4-8.6,24-2.6c15.5,6.2,22-1,22-5.9c0-3.9-7.2-0.7-9.9-3.6c-7.2-14.5-6.9-46.7-31.9-45.1c-0.7,0-8.6-2-22,7.9
	c0,0-4.6,7.9,2.6,6.9c0.7-0.7,23-14.1,24,6.6C450.4,272.1,433.3,273.1,433.3,289.9z M458.3,279c5.9-0.7,2.6-0.3,9.2,0.3
	c-0.3,0,9.9,11.8-0.7,17.1C446.1,298.5,452.3,279.7,458.3,279z M266.5,385.3c6.2,1,3.3-5.6,1-15.5c-2.3-10.2-5.3-18.1-14.8-9.5
	c0.3,0.3-4.3,1-4.3,1c-1,0.3-22.7,0.3-19.4-0.7c-0.3,0-1.6-5.3-1.6-15.1c0-11.5,2.6-12.5,24-14.8c26.6,0.7,47,1.3,58.9,6.9
	c1.6,0.7,10.2,0.7,12.2-1.3c5.6-5.3,7.6-20.1-8.2-22c-21-5.6-53-1-76,2.6c6.9-1-23.4,6.6-54.3,3.9c-17.8-1.3-17.4-5.6-17.4-5.6
	c-7.2-10.5-23-2-19.7,12.2c1,4.9,11.8,14.1,39.5,8.6c4.9-1,8.6-1.3,16.8-1.3c0,69.4,0.3,108.9,0,109.2c0.7-0.3-17.8,29.6-3.3,25.3
	c3.9-1,28.9-18.7,33.2-21.7c4.3-4.6-4.6-7.2-4.6-13.8c0-32.2,0-46.7,0-52c0-3.9,2-3.6,2-3.6s17.4-1.3,24.7,0.7
	C259.9,380,267.5,385.6,266.5,385.3z M430.3,408.3c-13.5,8.9-13.5-2.3-13.8-2.3c0-1.3-1.3-17.8-0.3-27.6c0,0,0.7-2.3,2.6-3
	c1.6-0.7,9.9-0.3,14.1-0.7c2.3-4.6,2-8.9,1.6-8.9c-5.3-0.7-13.8,0.3-18.1-0.7c-0.7-5.3-0.7-13.2-0.7-19.4c-0.3,0-3.6,0-3.9-0.3
	c-14.8,15.5-18.7,20.1-22.4,23.7c-1.6,8.6,7.2,3.6,6.9,8.2c3.6,20.1-12.5,42.4,18.1,43.7C438.2,421.5,440.5,404.4,430.3,408.3z
	 M619.4,371.1c0.3-1.3,0-3.9,0.3-5.3c-24-2-29.6,0.3-29.6,0.7c0.3,1.3,0,2.6,0.3,3.9c0.3,1,5.6,3.6,5.6,3.9c3,6.9-6.9,21.7-9.2,25
	c2,3-7.9-8.9-10.5-25.7c1.3-1,4.3-1.3,4.6-3c1.3-5.6-2.6-6.6-15.1-5.9c-5.3,0.3-11.5,0-15.1,1.6c0,1,0,3.6-0.3,4.6
	c1.3,1,3,1.3,4.3,3c3.6,4.3,17.1,33.2,20.7,43.7c-0.3,0.3,0.3,1.3,0,1.6c-28.6,41.4-53.9,33.2-52.3,19.1c1-2.3-2.3-6.9-11.2-3.9
	c-5.3,2.6-6.9,7.9-6.2,10.9c7.9,29.3,52,17.1,78.6-16.4c8.6-10.5,23-30.9,29.9-52C615.5,373.4,619.1,371.5,619.4,371.1z
	 M525.7,421.1c0.3-1.6,2.3,0.7,1.3-4.9c-0.3-2.3-5.3-3-6.2-5.6c-1.3-3.6-1-17.4,0-21.4c-0.7,3.6,4.3-14.1,15.5-3.6
	c0.3,0.3,1.3,2,1.3,2.3c3,0.7,2.3,0.3,4.9-1.3c-0.7-8.6,14.8-22-3.3-20.4c-9.9,1-12.5,5.9-17.1,10.2h-1.3c0.3-14.8-5.3-9.9-11.8-5.9
	c-4.6,2.6-7.9,4.3-11.8,7.2c0.3,0.7,0,2.6,0,3.6c1.6,1,3.9,1.3,4.9,3c2.3,3.6,3,18.1,1.3,24.3c-0.7,3.3-6.9,5.6-7.9,7.9
	c-0.3,1,0.3,3,0,3.9C505,422.4,514.2,421.1,525.7,421.1z M462.2,364.6c-18.7,1.6-28.6,12.8-28.6,28.6c0,24,23,33.9,48,27.3
	C514.8,409.9,498.1,361.3,462.2,364.6z M476,412.6c-21,10.2-31.9-37.5-18.4-40.8C475.4,367.8,487.2,407,476,412.6z M331.3,411.3
	c0,0-3.3,0.7-4.9-0.3c-2.6-1.6-3.9-10.2-5.6-14.1c-6.2-15.1-5.3-32.9-28-32.6c-8.2-0.3-21.4,6.9-22.4,10.5c-1.6,6.6,3.6,5.6,3.6,5.6
	c12.2-9.2,20.4-3.9,20.4-4.3c4.9,6.9,3.6,11.2,3.6,10.9c-31.6-1.3-32.2,15.8-32.2,17.8c-0.3,14.5,10.9,17.4,21,17.4
	c6.2,0,14.1-0.7,17.4-3.3c5.3-4.6,5.3,0.3,9.2,1.3C338.2,426.7,337.9,409.3,331.3,411.3z M298.7,412.6c-15.8,3.6-17.4-15.8-6.9-17.8
	C306,391.5,308,410.3,298.7,412.6z M98.4,334c0.3,1,0,2.6,0.3,3c0.7,0.7,3.9-0.3,4.9-0.7c13.2-6.6,30.3-21,29.3-50.7c0-1,0-2,0-3
	c0.3-12.2-7.6-32.9-21.4-33.5c-4.3-0.3-8.9,1.3-14.5,4.9c0-13.5,0.3-21,0-34.2h-3c-6.6,3.9-13.8,8.2-19.7,12.8
	c0.3,1.3-0.3,2.6,0,4.3c0,1,5.9,2.6,5.9,4.6c0,1,0.3,41.1-0.7,51.3c-0.7,4.9-4.6,5.3-6.2,7.2c0,0-0.7,5.9,1.6,5.9h26
	c2-1.3,1.6-2,1.6-4.9c-0.7-0.7-3.9-3.9-4.6-6.6c-1.6-6.9-2-20.4-1.3-26c0.3-2.6,3-4.9,4.3-5.9c0.7-0.7,3.9,0,4.3-0.3
	c0.3-0.3,3.9,4.6,4.6,5.9c3.6,7.6,6.2,22,5.9,29.3C115.2,328.1,100.7,331,98.4,334z M618.8,407.6c-4.3,0-8.2,3-8.2,8.2
	c0,5.3,3.9,8.2,8.2,8.2s8.2-3,8.2-8.2C627,410.6,623.4,407.6,618.8,407.6z M618.8,422.4L618.8,422.4c-3.3,0-5.9-2.6-5.9-6.2
	c0-3.9,2.6-6.2,5.9-6.2c3.3,0,5.9,2.6,5.9,6.2C624.7,419.8,622.1,422.4,618.8,422.4z M622.7,414.2c0-2-1.3-2.6-3.6-2.6h-3.3v8.9h2
	v-3.6h1l2,3.6h2.3l-2.3-3.9C621.7,416.5,622.7,415.9,622.7,414.2z M619.1,415.2h-1.6v-2.3h1.3c0.7,0,1.6,0,1.6,1
	C620.7,414.9,620.1,415.2,619.1,415.2z"/>
</svg>
